# xmcd CD database file
#
# Track frame offsets:
#	150
#	30592
#	75060
#	102313
#	137290
#	167884
#	200317
#	225657
#	252273
#	302866
#
# Disc length: 4228 seconds
#
# Revision: 0
# Processed by: cddbd v1.5.2PL0 Copyright (c) Steve Scherf et al.
# Submitted via: CDex 1.51
#
DISCID=6f10820a
DTITLE=Wahnschaffe, Schröder, Potratz, Schäfer - Das Rosa Rauschen II
DYEAR=2006
DGENRE=Jazz
TTITLE0=Zur Sache, Schätzchen
TTITLE1=Fussschweiss
TTITLE2=Panaroma
TTITLE3=Vereinfachung
TTITLE4=Shockproof
TTITLE5=Nazuna
TTITLE6=Zervikale Abrasion
TTITLE7=Paravent
TTITLE8=Ante Etna
TTITLE9=Hidden Track
EXTD=YEAR: 2006
EXTT0=
EXTT1=
EXTT2=
EXTT3=
EXTT4=
EXTT5=
EXTT6=
EXTT7=
EXTT8=
EXTT9=
PLAYORDER=
